mtllib RL5OZYCN4E44DVCXSULG0X7AV.mtl
v -0.178445 0.796102 0.290139
v -0.204254 0.697312 0.168209
v -0.085885 0.799662 0.247419
v -0.003115 0.475703 -0.144179
v -0.028035 0.343094 -0.160199
v -0.126825 0.495283 -0.084550
v 0.161534 0.604753 0.140619
v 0.169544 0.664382 0.134389
v 0.105464 0.608312 0.195799
v -0.140175 0.348433 0.105020
v -0.140175 0.348433 -0.087220
v -0.025365 0.246974 0.008900
v 0.147294 0.658152 0.008900
v -0.204254 0.697312 0.168209
v -0.176665 0.896671 0.084550
v -0.204254 0.697312 -0.151299
v -0.176665 0.896671 -0.066750
v -0.126825 0.495283 0.101460
v -0.140175 0.348433 -0.087220
v -0.140175 0.348433 0.105020
v 0.103684 0.357333 -0.095230
v -0.028035 0.343094 -0.160199
v 0.122374 0.481933 -0.110360
v 0.122374 0.481933 0.128159
v 0.103684 0.357333 0.113030
v -0.003115 0.475703 0.161979
v -0.178445 0.796102 0.290139
v 0.119704 0.713332 0.078320
v 0.043165 0.796102 0.090780
v -0.080545 0.845052 0.307049
v -0.176665 0.896671 0.084550
v -0.178445 0.796102 0.290139
v 0.144624 0.739142 -0.069420
v 0.125934 0.702652 -0.184229
v 0.066305 0.845942 -0.084550
v 0.103684 0.357333 -0.095230
v 0.103684 0.357333 0.113030
v -0.028035 0.343094 0.177999
v -0.028035 0.343094 -0.160199
v -0.052065 0.857512 0.094340
v -0.038715 0.912691 0.108580
v 0.043165 0.796102 0.090780
v 0.066305 0.845942 0.102350
v -0.052065 0.857512 -0.076540
v 0.043165 0.796102 -0.073870
v -0.038715 0.912691 -0.091670
v 0.119704 0.713332 -0.060520
v -0.178445 0.796102 -0.273229
v -0.176665 0.896671 -0.066750
v -0.080545 0.845052 -0.290139
v -0.028035 0.343094 0.177999
v 0.029815 0.814792 -0.296369
v -0.085885 0.799662 -0.230509
v -0.080545 0.845052 -0.290139
v -0.080545 0.845052 0.307049
v -0.178445 0.796102 -0.273229
v -0.019135 0.619883 0.190459
v -0.003115 0.475703 0.161979
v 0.036045 0.554913 0.182449
v 0.029815 0.814792 -0.296369
v 0.029815 0.814792 0.314169
v 0.115254 0.681292 0.188679
v 0.161534 0.604753 -0.123710
v 0.105464 0.608312 -0.177999
v 0.169544 0.664382 -0.117480
v 0.112584 0.554023 -0.124600
v 0.116144 0.582503 0.008900
v 0.115254 0.681292 -0.170879
v 0.119704 0.713332 -0.060520
v 0.029815 0.814792 0.314169
v 0.112584 0.554023 0.141509
v 0.018245 0.805892 0.008900
v -0.052065 0.857512 0.094340
v -0.003115 0.475703 0.161979
v -0.028035 0.343094 0.177999
v -0.019135 0.619883 0.190459
v -0.019135 0.619883 -0.172659
v 0.115254 0.681292 -0.170879
v -0.178445 0.796102 -0.273229
v -0.204254 0.697312 -0.151299
v 0.125934 0.702652 -0.184229
v 0.144624 0.739142 -0.069420
v 0.115254 0.681292 -0.170879
v 0.144624 0.739142 0.087220
v 0.125934 0.702652 0.202919
v 0.105464 0.608312 0.195799
v 0.036045 0.554913 -0.165539
v -0.019135 0.619883 -0.172659
v 0.105464 0.608312 -0.177999
v 0.122374 0.481933 -0.110360
v -0.003115 0.475703 -0.144179
v 0.112584 0.554023 -0.124600
v 0.112584 0.554023 0.141509
v 0.119704 0.713332 0.078320
v 0.043165 0.796102 -0.073870
v -0.052065 0.857512 -0.076540
v 0.125934 0.702652 -0.184229
v 0.125934 0.702652 0.202919
v -0.176665 0.896671 0.084550
v -0.176665 0.896671 -0.066750
v 0.115254 0.681292 0.188679
v 0.115254 0.681292 -0.170879
v 0.115254 0.681292 0.188679
v 0.125934 0.702652 0.202919
v 0.115254 0.681292 0.188679
v 0.144624 0.739142 0.087220
v 0.119704 0.713332 0.078320
v -0.019135 0.619883 -0.172659
v -0.019135 0.619883 0.190459
v 0.119704 0.713332 -0.060520
v 0.122374 0.481933 0.128159
v -0.003115 0.475703 -0.144179
v -0.005785 0.922481 0.036490
v 0.002225 0.803222 0.042720
v -0.005785 0.922481 -0.018690
v -0.170435 1.034621 0.072090
v -0.126825 0.959861 0.054290
v -0.090335 1.062211 0.114810
v 0.071644 1.018601 0.076540
v 0.063634 0.960751 0.057850
v 0.076984 1.001691 0.028480
v -0.126825 0.959861 -0.037380
v -0.149965 0.960751 0.008900
v -0.170435 1.034621 -0.055180
v -0.005785 0.922481 0.036490
v -0.005785 0.922481 -0.018690
v 0.060074 0.912691 0.026700
v 0.060074 0.912691 -0.008900
v -0.060965 0.815682 0.074760
v 0.002225 0.803222 0.042720
v -0.076985 0.976771 0.066750
v -0.028035 0.988341 -0.089890
v 0.010235 0.983001 -0.072980
v -0.076985 0.976771 -0.049840
v 0.048505 1.071111 -0.093450
v -0.012905 1.080011 -0.104130
v 0.017355 1.113830 -0.089000
v -0.090335 1.062211 -0.097900
v -0.164205 1.135190 0.080990
v -0.044055 1.122731 0.124600
v -0.140175 1.177020 0.126379
v -0.023585 1.219740 0.147739
v -0.140175 1.177020 0.126379
v -0.026255 1.179690 0.153079
v 0.017355 1.113830 0.114810
v -0.012905 1.080011 0.121040
v 0.048505 1.071111 0.107690
v 0.071644 1.079121 -0.056960
v 0.028925 1.053311 -0.079210
v 0.067194 1.110271 -0.053400
v -0.132165 1.224190 0.122820
v -0.030705 1.250000 0.008900
v 0.082324 1.199270 0.100570
v 0.114364 1.174350 0.008900
v 0.076984 1.001691 -0.011570
v 0.075204 1.047971 -0.007120
v 0.110804 1.001691 0.003560
v -0.044055 1.122731 0.124600
v -0.164205 1.135190 0.080990
v 0.010235 0.983001 0.090780
v -0.076985 0.976771 0.066750
v 0.002225 0.935831 0.059630
v 0.002225 0.803222 -0.024920
v -0.076985 0.976771 -0.049840
v -0.076985 0.976771 0.066750
v 0.091224 1.069331 0.001780
v 0.067194 1.067551 -0.046280
v -0.192685 1.137860 0.008900
v -0.164205 1.135190 -0.063190
v -0.200694 1.041741 0.008900
v 0.075204 1.047971 0.024030
v 0.086774 1.047971 0.008900
v 0.091224 1.069331 0.015130
v 0.081434 1.110271 0.008900
v 0.066304 1.042631 -0.046280
v 0.071644 1.018601 -0.059630
v -0.170435 1.034621 0.072090
v -0.164205 1.135190 0.080990
v -0.126825 0.959861 0.054290
v 0.077874 0.926931 0.008900
v 0.063634 0.960751 -0.040940
v 0.002225 0.935831 0.059630
v 0.083214 1.152990 -0.086330
v -0.057405 1.214400 -0.068530
v -0.044055 1.121840 -0.105020
v -0.147295 1.171680 -0.099680
v -0.035155 1.155660 -0.129939
v 0.071644 1.079121 0.073870
v 0.067194 1.110271 0.069420
v 0.028925 1.053311 0.097010
v -0.170435 1.034621 -0.055180
v -0.090335 1.062211 -0.097900
v -0.126825 0.959861 -0.037380
v 0.085884 0.986561 0.008900
v 0.110804 1.001691 0.013350
v 0.076984 1.001691 0.028480
v 0.076984 1.001691 -0.011570
v 0.110804 1.001691 0.003560
v 0.066304 1.042631 0.063190
v 0.067194 1.067551 0.063190
v 0.017355 1.113830 0.114810
v -0.026255 1.179690 0.153079
v -0.164205 1.135190 -0.063190
v -0.192685 1.137860 0.008900
v -0.164205 1.135190 0.080990
v -0.191795 1.177020 0.008900
v -0.164205 1.135190 0.080990
v -0.140175 1.177020 0.126379
v -0.191795 1.177020 0.008900
v -0.196245 1.217960 0.008900
v -0.164205 1.135190 -0.063190
v 0.082324 0.966091 0.018690
v 0.082324 0.966091 -0.001780
v 0.085884 0.986561 0.008900
v 0.083214 1.152990 -0.086330
v 0.114364 1.174350 0.008900
v 0.067194 1.110271 -0.053400
v -0.035155 1.155660 -0.129939
v -0.147295 1.171680 -0.099680
v 0.010235 0.983001 -0.072980
v 0.002225 0.935831 -0.041830
v -0.136615 0.846832 -0.037380
v -0.135725 0.909131 -0.029370
v -0.060965 0.815682 -0.057850
v 0.010235 0.983001 0.090780
v -0.012905 1.080011 0.121040
v -0.090335 1.062211 0.114810
v -0.028035 0.988341 0.107690
v -0.164205 1.135190 -0.063190
v -0.012905 1.080011 0.121040
v -0.044055 1.122731 0.124600
v -0.090335 1.062211 0.114810
v -0.044055 1.121840 -0.105020
v -0.076985 0.976771 -0.049840
v 0.030705 0.883321 -0.082770
v -0.003115 0.915361 -0.113030
v 0.029815 0.991901 -0.107690
v -0.012905 1.080011 -0.104130
v 0.030705 0.884211 0.099680
v 0.010235 0.983001 0.090780
v 0.029815 0.991901 0.125490
v 0.067194 1.110271 -0.053400
v 0.067194 1.110271 0.069420
v 0.017355 1.113830 0.114810
v -0.090335 1.062211 -0.097900
v -0.044055 1.121840 -0.105020
v -0.012905 1.080011 -0.104130
v 0.017355 1.113830 -0.089000
v -0.191795 1.177020 0.008900
v 0.083214 1.152990 -0.086330
v 0.067194 1.110271 -0.053400
v 0.017355 1.113830 -0.089000
v 0.017355 1.113830 0.114810
v 0.067194 1.110271 0.069420
v 0.082324 1.199270 0.100570
v 0.081434 1.110271 0.008900
v 0.082324 1.199270 0.100570
v 0.081434 1.110271 0.008900
v -0.147295 1.171680 -0.099680
v 0.010235 0.983001 -0.072980
v 0.030705 0.883321 -0.082770
v 0.029815 0.991901 -0.107690
v -0.022695 0.981221 0.141509
v -0.003115 0.915361 0.129939
v 0.029815 0.991901 0.125490
v 0.028925 1.053311 0.097010
v 0.028925 1.053311 -0.079210
v 0.048505 1.071111 -0.093450
v -0.026255 1.179690 0.153079
v -0.028035 0.988341 0.107690
v -0.076985 0.976771 0.066750
v 0.010235 0.983001 0.090780
v 0.010235 0.983001 -0.072980
v 0.002225 0.935831 -0.041830
v -0.022695 0.981221 -0.124600
v -0.028035 0.988341 -0.089890
v -0.135725 0.909131 -0.029370
v -0.135725 0.909131 0.047170
v -0.135725 0.909131 -0.029370
v -0.135725 0.909131 0.047170
v -0.135725 0.909131 0.047170
v -0.136615 0.846832 0.055180
v -0.076985 0.976771 -0.049840
v 0.048505 1.071111 0.107690
v 0.067194 1.110271 0.069420
v 0.067194 1.110271 -0.053400
v 0.110804 1.001691 0.013350
v 0.002225 0.803222 -0.024920
v 0.010235 0.983001 -0.072980
v 0.030705 0.884211 0.099680
v 0.010235 0.983001 0.090780
v -0.239854 0.094785 -0.163759
v -0.225614 0.220274 -0.150409
v -0.055625 0.133944 -0.232289
v 0.098344 0.124154 0.131719
v 0.101904 0.341314 0.107690
v -0.055625 0.133944 0.250089
v -0.051175 0.002225 0.008900
v -0.055625 0.133944 -0.232289
v 0.098344 0.124154 -0.114810
v -0.051175 0.002225 0.008900
v -0.198024 0.094785 0.008900
v -0.239854 0.094785 0.180669
v 0.096564 0.222944 -0.053400
v 0.102794 0.342204 -0.054290
v -0.145515 0.343094 0.105910
v 0.101904 0.341314 0.107690
v -0.044945 0.254094 -0.202029
v -0.145515 0.343094 -0.088110
v -0.033375 0.345764 -0.160199
v -0.033375 0.345764 -0.160199
v 0.050285 0.223834 -0.145069
v -0.044945 0.254094 -0.202029
v -0.055625 0.133944 0.250089
v -0.225614 0.220274 0.168209
v -0.033375 0.345764 0.177999
v -0.044945 0.254094 0.218939
v -0.145515 0.343094 0.105910
v -0.194464 0.219384 0.008900
v 0.102794 0.342204 -0.054290
v 0.129494 0.342204 -0.077430
v 0.142844 0.222944 -0.086330
v 0.066305 0.343984 -0.155749
v 0.030705 0.343984 -0.126379
v 0.095674 0.222944 -0.113030
v 0.102794 0.342204 -0.054290
v 0.129494 0.342204 -0.077430
v 0.030705 0.343984 -0.126379
v 0.050285 0.223834 -0.145069
v 0.030705 0.343984 -0.126379
v 0.079655 0.223834 -0.165539
v 0.096564 0.222944 -0.053400
v 0.102794 0.342204 -0.054290
v -0.033375 0.345764 0.177999
v -0.044945 0.254094 0.218939
v 0.079655 0.223834 -0.165539
v 0.030705 0.343984 -0.126379
v -0.145515 0.343094 -0.088110
v 0.066305 0.343984 -0.155749
v 0.066305 0.343984 -0.155749
v 0.129494 0.342204 -0.077430
v 0.096564 0.222944 -0.053400
v 0.050285 0.223834 -0.145069
v 0.142844 0.222944 -0.086330
v 0.079655 0.223834 -0.165539
v -0.033375 0.345764 0.177999
v -0.033375 0.345764 -0.160199
v 0.068085 -0.473033 -0.132609
v -0.023585 -0.547793 -0.127269
v -0.045835 -0.474813 -0.219829
v -0.042275 -0.474813 -0.029370
v 0.109914 0.032485 -0.121930
v -0.042275 -0.005785 0.007120
v 0.096565 -0.365344 -0.130829
v -0.039605 -0.343984 0.000890
v -0.137504 -0.474813 -0.124600
v -0.228284 0.093005 -0.164649
v -0.179334 -0.364454 -0.125490
v -0.230064 0.027145 -0.065860
v 0.096565 -0.365344 -0.130829
v 0.068085 -0.473033 -0.132609
v -0.051175 -0.343984 -0.248309
v -0.045835 -0.474813 -0.219829
v -0.046725 0.117035 -0.232289
v -0.179334 -0.364454 -0.125490
v -0.228284 0.093005 -0.164649
v -0.086775 0.206924 -0.024920
v 0.086775 0.170434 -0.114810
v -0.049395 0.222054 -0.188679
v 0.086775 0.170434 -0.114810
v -0.230064 0.027145 -0.065860
v -0.182004 0.218494 -0.115700
v -0.182004 0.218494 -0.115700
v 0.068085 -0.473033 -0.132609
v -0.042275 -0.474813 -0.029370
v -0.137504 -0.474813 -0.124600
v -0.179334 -0.364454 -0.125490
v -0.137504 -0.474813 -0.124600
v 0.086775 0.170434 -0.114810
v -0.068085 0.291474 -0.108580
v -0.086775 0.206924 -0.024920
v -0.049395 0.222054 -0.188679
v -0.182004 0.218494 -0.115700
v -0.182004 0.218494 -0.115700
v -0.048505 -0.424083 -0.028480
v 0.012905 -0.344874 -0.129939
v -0.139284 -0.427643 -0.129939
v 0.063635 -0.427643 -0.130829
v -0.118814 -1.113831 -0.129939
v -0.053845 -1.112051 -0.186009
v -0.063635 -1.194820 -0.127269
v -0.001335 -1.114721 -0.129939
v -0.063635 -1.194820 -0.127269
v -0.053845 -1.112051 -0.186009
v -0.139284 -0.427643 -0.129939
v -0.178444 -0.878872 -0.129049
v -0.048505 -0.424083 -0.028480
v -0.047615 -0.877092 -0.024030
v -0.053845 -1.112051 -0.070310
v -0.053845 -1.112051 -0.070310
v -0.119704 -0.916251 -0.129939
v -0.047615 -0.913581 -0.064970
v -0.049395 -0.424973 -0.222499
v -0.047615 -0.913581 -0.064970
v 0.014685 -0.916251 -0.129939
v 0.076985 -0.878872 -0.132609
v -0.050285 -0.877982 -0.235849
v -0.049395 -0.424973 -0.222499
v -0.050285 -0.877982 -0.235849
v -0.047615 -0.877092 -0.024030
v -0.047615 -0.914471 -0.192239
v -0.047615 -0.914471 -0.192239
v -0.047615 -0.913581 -0.064970
v -0.119704 -0.916251 -0.129939
v 0.014685 -0.916251 -0.129939
v -0.047615 -0.913581 -0.064970
v -0.047615 -0.914471 -0.192239
v -0.047615 -0.914471 -0.192239
v -0.064525 -1.246440 -0.056960
v -0.059185 -1.077341 -0.072090
v -0.163314 -1.246440 -0.074760
v 0.238964 -1.246440 -0.178889
v 0.239854 -1.246440 -0.082770
v -0.062745 -1.246440 -0.223389
v -0.162424 -1.246440 -0.186009
v -0.133944 -1.085351 -0.128159
v 0.235404 -1.202830 -0.178889
v 0.113475 -1.169900 -0.182449
v 0.236294 -1.195710 -0.082770
v 0.236294 -1.195710 -0.082770
v 0.235404 -1.202830 -0.178889
v 0.111695 -1.163670 -0.074760
v 0.113475 -1.169900 -0.182449
v -0.059185 -1.077341 -0.072090
v 0.111695 -1.163670 -0.074760
v 0.010235 -1.077341 -0.130829
v -0.060075 -1.077341 -0.190459
v 0.111695 -1.163670 -0.074760
v -0.060075 -1.077341 -0.190459
v 0.113475 -1.169900 -0.182449
v 0.068085 -0.473033 0.121930
v -0.045835 -0.474813 0.209149
v -0.023585 -0.547793 0.116590
v -0.042275 -0.474813 0.018690
v 0.109914 0.032485 0.111250
v 0.096565 -0.365344 0.120150
v -0.042275 -0.005785 -0.017800
v -0.039605 -0.343984 -0.011570
v -0.137504 -0.474813 0.113920
v -0.228284 0.093005 0.153969
v -0.230064 0.027145 0.055180
v -0.179334 -0.364454 0.114810
v 0.096565 -0.365344 0.120150
v -0.051175 -0.343984 0.237629
v 0.068085 -0.473033 0.121930
v -0.045835 -0.474813 0.209149
v -0.046725 0.117035 0.221609
v -0.179334 -0.364454 0.114810
v -0.228284 0.093005 0.153969
v -0.086775 0.206924 0.014240
v 0.086775 0.170434 0.104130
v -0.049395 0.222054 0.177999
v 0.086775 0.170434 0.104130
v -0.230064 0.027145 0.055180
v -0.182004 0.218494 0.105020
v -0.182004 0.218494 0.105020
v 0.068085 -0.473033 0.121930
v -0.042275 -0.474813 0.018690
v -0.137504 -0.474813 0.113920
v -0.179334 -0.364454 0.114810
v -0.137504 -0.474813 0.113920
v 0.086775 0.170434 0.104130
v -0.086775 0.206924 0.014240
v -0.068085 0.291474 0.097900
v -0.049395 0.222054 0.177999
v -0.182004 0.218494 0.105020
v -0.182004 0.218494 0.105020
v -0.057405 -0.424973 0.040940
v -0.148184 -0.428533 0.141509
v 0.004005 -0.345764 0.141509
v 0.054735 -0.428533 0.144179
v -0.127714 -1.114721 0.142399
v -0.072535 -1.195710 0.139729
v -0.062745 -1.112941 0.198469
v -0.010235 -1.115611 0.142399
v -0.062745 -1.112941 0.198469
v -0.072535 -1.195710 0.139729
v -0.148184 -0.428533 0.141509
v -0.057405 -0.424973 0.040940
v -0.187344 -0.879762 0.141509
v -0.056515 -0.877982 0.036490
v -0.062745 -1.112941 0.083660
v -0.128604 -0.917141 0.143289
v -0.062745 -1.112941 0.083660
v -0.056515 -0.914471 0.077430
v -0.058295 -0.425863 0.235849
v -0.056515 -0.914471 0.077430
v 0.005785 -0.917141 0.143289
v 0.068085 -0.879762 0.145069
v -0.059185 -0.878872 0.249199
v -0.058295 -0.425863 0.235849
v -0.059185 -0.878872 0.249199
v -0.056515 -0.877982 0.036490
v -0.056515 -0.915361 0.205589
v -0.056515 -0.915361 0.205589
v -0.056515 -0.914471 0.077430
v -0.128604 -0.917141 0.143289
v 0.005785 -0.917141 0.143289
v -0.056515 -0.914471 0.077430
v -0.056515 -0.915361 0.205589
v -0.056515 -0.915361 0.205589
v -0.064525 -1.247330 0.059630
v -0.163314 -1.247330 0.077430
v -0.059185 -1.078231 0.074760
v 0.238964 -1.247330 0.181559
v -0.062745 -1.247330 0.226059
v 0.239854 -1.247330 0.085440
v -0.162424 -1.247330 0.188679
v -0.133944 -1.086241 0.131719
v 0.235404 -1.203720 0.181559
v 0.113475 -1.170790 0.185119
v 0.236294 -1.196600 0.085440
v 0.236294 -1.196600 0.085440
v 0.111695 -1.164560 0.077430
v 0.235404 -1.203720 0.181559
v 0.113475 -1.170790 0.185119
v -0.059185 -1.078231 0.074760
v 0.010235 -1.078231 0.133499
v 0.111695 -1.164560 0.077430
v -0.060075 -1.078231 0.193129
v 0.111695 -1.164560 0.077430
v -0.060075 -1.078231 0.193129
v 0.113475 -1.170790 0.185119
v -0.124155 0.746262 -0.299929
v -0.125045 0.780082 -0.172659
v -0.052065 0.818352 -0.242969
v -0.100125 0.424973 -0.328409
v -0.117925 0.651032 -0.297259
v -0.014685 0.425863 -0.331969
v -0.097455 0.414293 -0.244749
v -0.117925 0.651032 -0.297259
v -0.012015 0.413403 -0.245639
v -0.052955 0.386703 -0.287469
v -0.014685 0.425863 -0.331969
v -0.010235 0.651922 -0.298149
v 0.009345 0.780082 -0.174439
v 0.009345 0.780082 -0.174439
v -0.125045 0.780082 -0.172659
v -0.012015 0.413403 -0.245639
v -0.097455 0.414293 -0.244749
v -0.124155 0.746262 -0.299929
v -0.052065 0.818352 -0.242969
v 0.001335 0.746262 -0.299039
v -0.100125 0.424973 -0.328409
v -0.052955 0.386703 -0.287469
v -0.052955 0.386703 -0.287469
v 0.001335 0.746262 -0.299039
v -0.052065 0.818352 -0.242969
v -0.010235 0.651922 -0.298149
v -0.026255 0.102795 -0.292809
v -0.089445 0.102795 -0.300819
v -0.059185 0.067195 -0.331969
v -0.091225 0.110805 -0.355109
v -0.028035 0.109915 -0.352439
v -0.025365 0.444553 -0.255429
v -0.010235 0.354664 -0.240299
v -0.026255 0.451673 -0.314169
v -0.109915 0.356444 -0.242079
v -0.010235 0.354664 -0.240299
v -0.079655 0.445443 -0.256319
v -0.111695 0.368014 -0.346209
v -0.109915 0.356444 -0.242079
v -0.080545 0.450783 -0.313279
v -0.026255 0.451673 -0.314169
v -0.012905 0.368904 -0.348879
v -0.080545 0.450783 -0.313279
v -0.026255 0.102795 -0.292809
v -0.012905 0.368904 -0.348879
v -0.028035 0.109915 -0.352439
v -0.089445 0.102795 -0.300819
v -0.026255 0.102795 -0.292809
v -0.091225 0.110805 -0.355109
v -0.089445 0.102795 -0.300819
v -0.028035 0.109915 -0.352439
v -0.111695 0.368014 -0.346209
v -0.091225 0.110805 -0.355109
v -0.025365 0.444553 -0.255429
v -0.079655 0.445443 -0.256319
v -0.004895 -0.102795 -0.314169
v 0.019135 -0.106355 -0.314169
v -0.005785 -0.106355 -0.293699
v 0.019135 -0.109025 -0.293699
v -0.093005 -0.178444 -0.339089
v -0.101015 -0.121485 -0.366679
v -0.020025 -0.178444 -0.337309
v -0.018245 -0.121485 -0.364899
v -0.093895 -0.168654 -0.323069
v -0.101905 -0.108135 -0.343539
v -0.020025 -0.168654 -0.322179
v 0.030705 -0.015575 -0.308829
v -0.012905 -0.008455 -0.371129
v -0.022695 0.109025 -0.298149
v -0.028925 0.116145 -0.350659
v -0.014685 -0.012905 -0.332859
v 0.001335 -0.016465 -0.309719
v -0.016465 -0.108135 -0.342649
v -0.001335 -0.020025 -0.280349
v 0.001335 -0.016465 -0.309719
v 0.030705 -0.015575 -0.308829
v 0.030705 -0.020025 -0.279459
v 0.030705 -0.020025 -0.279459
v -0.001335 -0.020025 -0.280349
v -0.086775 0.105465 -0.299039
v -0.085885 0.116145 -0.350659
v -0.110805 -0.047615 -0.374689
v -0.125045 0.736472 0.307049
v -0.052955 0.808562 0.250089
v -0.125935 0.770292 0.179779
v -0.101015 0.415183 0.335529
v -0.015575 0.416073 0.339089
v -0.118815 0.641242 0.304379
v -0.098345 0.404503 0.251869
v -0.118815 0.641242 0.304379
v -0.012905 0.403613 0.252759
v -0.015575 0.416073 0.339089
v -0.053845 0.376913 0.294589
v 0.008455 0.770292 0.181559
v -0.011125 0.642132 0.305269
v 0.008455 0.770292 0.181559
v -0.012905 0.403613 0.252759
v -0.125935 0.770292 0.179779
v -0.098345 0.404503 0.251869
v -0.125045 0.736472 0.307049
v 0.000445 0.736472 0.306159
v -0.052955 0.808562 0.250089
v -0.101015 0.415183 0.335529
v -0.053845 0.376913 0.294589
v -0.053845 0.376913 0.294589
v 0.000445 0.736472 0.306159
v -0.052955 0.808562 0.250089
v -0.011125 0.642132 0.305269
v 0.000445 0.736472 0.306159
v -0.118815 0.641242 0.304379
v -0.125045 0.736472 0.307049
v -0.011125 0.642132 0.305269
v -0.020915 0.113475 0.301709
v -0.053845 0.077875 0.340869
v -0.084105 0.113475 0.309719
v -0.085885 0.121484 0.364009
v -0.022695 0.120594 0.361339
v -0.020025 0.455233 0.264329
v -0.020915 0.462353 0.323069
v -0.004895 0.365343 0.249199
v -0.104575 0.367124 0.250979
v -0.074315 0.456123 0.265219
v -0.004895 0.365343 0.249199
v -0.106355 0.378693 0.355109
v -0.075205 0.461463 0.322179
v -0.104575 0.367124 0.250979
v -0.020915 0.462353 0.323069
v -0.075205 0.461463 0.322179
v -0.007565 0.379583 0.357779
v -0.007565 0.379583 0.357779
v -0.020915 0.113475 0.301709
v -0.022695 0.120594 0.361339
v -0.084105 0.113475 0.309719
v -0.020915 0.113475 0.301709
v -0.085885 0.121484 0.364009
v -0.084105 0.113475 0.309719
v -0.106355 0.378693 0.355109
v -0.022695 0.120594 0.361339
v -0.085885 0.121484 0.364009
v -0.020025 0.455233 0.264329
v -0.074315 0.456123 0.265219
v -0.000445 -0.065415 0.314169
v -0.001335 -0.068975 0.293699
v 0.023585 -0.068975 0.314169
v 0.023585 -0.071645 0.293699
v -0.088555 -0.141064 0.339089
v -0.015575 -0.141064 0.337309
v -0.096565 -0.084105 0.366679
v -0.013795 -0.084105 0.364899
v -0.089445 -0.131275 0.323069
v -0.097455 -0.070755 0.343539
v -0.015575 -0.131275 0.322179
v 0.035155 0.021805 0.308829
v -0.018245 0.146404 0.298149
v -0.008455 0.028925 0.371129
v -0.024475 0.153524 0.350659
v -0.010235 0.024475 0.332859
v 0.005785 0.020915 0.309719
v -0.012015 -0.070755 0.342649
v 0.003115 0.017355 0.280349
v 0.005785 0.020915 0.309719
v 0.035155 0.021805 0.308829
v 0.035155 0.017355 0.279459
v 0.035155 0.017355 0.279459
v 0.003115 0.017355 0.280349
v -0.082325 0.142844 0.299039
v -0.081435 0.153524 0.350659
v -0.081435 0.153524 0.350659
v -0.082325 0.142844 0.299039
v -0.106355 -0.010235 0.374689
v -0.097455 -0.070755 0.343539
v -0.106355 -0.010235 0.374689
v -0.071645 -1.250000 -0.018690
v -0.035155 -1.072891 -0.018690
v -0.071645 -1.250000 -0.071200
v -0.035155 -1.072891 -0.071200
v -0.009345 -1.250000 -0.018690
v -0.009345 -1.250000 -0.071200
v 0.027145 -1.072891 -0.071200
v 0.027145 -1.072891 -0.018690
v -0.035155 -1.072891 -0.018690
v 0.027145 -1.072891 -0.018690
v -0.035155 -1.072891 -0.071200
v 0.027145 -1.072891 -0.071200
# num_vertices: 717

vt 0.688235 0.490196
vt 0.656863 0.443137
vt 0.660784 0.537255
vt 0.582353 0.717647
vt 0.578431 0.650980
vt 0.609804 0.729412
vt 0.809804 0.556863
vt 0.813725 0.592157
vt 0.782353 0.560784
vt 0.590196 0.200000
vt 0.535294 0.200000
vt 0.562745 0.239216
vt 0.872549 0.588235
vt 0.715686 0.835294
vt 0.680392 0.941176
vt 0.582353 0.835294
vt 0.617647 0.941176
vt 0.688235 0.729412
vt 0.609804 0.650980
vt 0.688235 0.650980
vt 0.923529 0.415686
vt 0.958824 0.407843
vt 0.931373 0.490196
vt 0.813725 0.490196
vt 0.821569 0.415686
vt 0.711765 0.717647
vt 0.766667 0.886275
vt 0.841176 0.623529
vt 0.833333 0.686275
vt 0.974510 0.937255
vt 0.860784 1.000000
vt 0.974510 0.964706
vt 0.860784 0.764706
vt 0.923529 0.764706
vt 0.860784 0.854902
vt 0.531373 0.196078
vt 0.594118 0.196078
vt 0.613725 0.203922
vt 0.511765 0.203922
vt 0.860784 0.917647
vt 0.864706 0.933333
vt 0.860784 0.843137
vt 0.860784 0.850980
vt 0.856863 0.917647
vt 0.856863 0.843137
vt 0.856863 0.937255
vt 0.860784 0.764706
vt 0.531373 0.886275
vt 0.845098 0.996078
vt 0.966667 0.941176
vt 0.719608 0.650980
vt 0.633333 0.603922
vt 0.660784 0.537255
vt 0.680392 0.556863
vt 0.680392 0.556863
vt 0.962745 0.968627
vt 0.747059 0.513725
vt 0.739216 0.439216
vt 0.727451 0.478431
vt 0.974510 0.874510
vt 0.633333 0.603922
vt 0.550980 0.592157
vt 0.939216 0.556863
vt 0.966667 0.560784
vt 0.935294 0.592157
vt 0.939216 0.525490
vt 0.872549 0.541176
vt 0.962745 0.603922
vt 0.907843 0.623529
vt 0.974510 0.866667
vt 0.809804 0.525490
vt 0.872549 0.690196
vt 0.833333 0.725490
vt 0.798039 0.490196
vt 0.790196 0.407843
vt 0.570588 0.505882
vt 0.570588 0.505882
vt 0.550980 0.592157
vt 0.688235 0.490196
vt 0.656863 0.443137
vt 0.507843 0.635294
vt 0.574510 0.635294
vt 0.511765 0.615686
vt 0.864706 0.760784
vt 0.927451 0.760784
vt 0.703922 0.498039
vt 0.727451 0.478431
vt 0.747059 0.513725
vt 0.703922 0.498039
vt 0.696078 0.439216
vt 0.739216 0.439216
vt 0.700000 0.470588
vt 0.700000 0.470588
vt 0.860784 0.764706
vt 0.915686 0.686275
vt 0.915686 0.725490
vt 0.554902 0.603922
vt 0.554902 0.603922
vt 0.837255 0.749020
vt 0.911765 0.749020
vt 0.786275 0.603922
vt 0.700000 0.537255
vt 0.700000 0.537255
vt 0.511765 0.639216
vt 0.515686 0.619608
vt 0.578431 0.635294
vt 0.578431 0.611765
vt 0.570588 0.796078
vt 0.723529 0.796078
vt 0.574510 0.611765
vt 0.696078 0.439216
vt 0.950980 0.490196
vt 0.007843 0.074510
vt 0.003922 0.000000
vt 0.007843 0.074510
vt 0.400000 0.701961
vt 0.337255 0.623529
vt 0.333333 0.768627
vt 0.058824 0.835294
vt 0.082353 0.737255
vt 0.113725 0.803922
vt 0.352941 0.631373
vt 0.400000 0.631373
vt 0.337255 0.717647
vt 0.117647 0.654902
vt 0.196078 0.654902
vt 0.129412 0.643137
vt 0.176471 0.643137
vt 0.376471 0.564706
vt 0.372549 0.552941
vt 0.431373 0.560784
vt 0.239216 0.356863
vt 0.192157 0.349020
vt 0.301961 0.337255
vt 0.396078 0.937255
vt 0.462745 0.941176
vt 0.427451 0.988235
vt 0.317647 0.466667
vt 0.954902 0.003922
vt 0.970588 0.003922
vt 0.990196 0.050980
vt 0.907843 0.109804
vt 0.939216 0.094118
vt 0.907843 0.098039
vt 0.427451 0.988235
vt 0.462745 0.941176
vt 0.396078 0.937255
vt 0.243137 0.941176
vt 0.274510 0.894118
vt 0.239216 0.996078
vt 0.939216 0.105882
vt 0.911765 0.117647
vt 0.880392 0.105882
vt 0.868627 0.098039
vt 0.188235 0.803922
vt 0.172549 0.890196
vt 0.160784 0.807843
vt 0.309804 0.866667
vt 0.423529 0.835294
vt 0.000000 0.105882
vt 0.039216 0.101961
vt 0.003922 0.082353
vt 0.003922 0.000000
vt 0.039216 0.101961
vt 0.294118 0.666667
vt 0.160784 0.925490
vt 0.227451 0.921569
vt 0.400000 0.862745
vt 0.329412 0.858824
vt 0.400000 0.725490
vt 0.129412 0.886275
vt 0.152941 0.890196
vt 0.141176 0.925490
vt 0.152941 0.996078
vt 0.227451 0.878431
vt 0.247059 0.839216
vt 0.458824 0.717647
vt 0.470588 0.858824
vt 0.443137 0.631373
vt 0.152941 0.670588
vt 0.223529 0.737255
vt 0.086275 0.678431
vt 0.876471 0.094118
vt 0.919608 0.105882
vt 0.974510 0.003922
vt 0.958824 0.043137
vt 0.994118 0.039216
vt 0.058824 0.941176
vt 0.066667 0.996078
vt 0.031373 0.894118
vt 0.400000 0.701961
vt 0.333333 0.768627
vt 0.337255 0.623529
vt 0.376471 0.450980
vt 0.368627 0.494118
vt 0.352941 0.450980
vt 0.400000 0.450980
vt 0.384314 0.494118
vt 0.074510 0.878431
vt 0.074510 0.921569
vt 0.950980 0.003922
vt 0.990196 0.066667
vt 0.927451 0.003922
vt 0.986275 0.003922
vt 0.958824 0.003922
vt 0.990196 0.043137
vt 0.978431 0.003922
vt 0.978431 0.050980
vt 0.974510 0.043137
vt 0.958824 0.101961
vt 0.970588 0.003922
vt 0.137255 0.749020
vt 0.164706 0.749020
vt 0.152941 0.780392
vt 0.986275 0.050980
vt 0.954902 0.078431
vt 0.994118 0.003922
vt 0.907843 0.090196
vt 0.947059 0.090196
vt 0.266667 0.772549
vt 0.223529 0.682353
vt 0.388235 0.513725
vt 0.407843 0.517647
vt 0.376471 0.505882
vt 0.039216 0.772549
vt 0.219608 0.494118
vt 0.317647 0.466667
vt 0.239216 0.356863
vt 0.423529 0.835294
vt 0.313725 0.819608
vt 0.356863 0.858824
vt 0.376471 0.756863
vt 0.305882 0.866667
vt 0.294118 0.662745
vt 0.396078 0.686275
vt 0.450980 0.745098
vt 0.407843 0.831373
vt 0.219608 0.494118
vt 0.411765 0.658824
vt 0.435294 0.721569
vt 0.411765 0.729412
vt 0.384314 0.980392
vt 0.384314 0.980392
vt 0.298039 0.878431
vt 0.376471 0.756863
vt 0.356863 0.858824
vt 0.313725 0.819608
vt 0.298039 0.878431
vt 0.954902 0.090196
vt 0.970588 0.050980
vt 0.939216 0.003922
vt 0.966667 0.003922
vt 0.900000 0.003922
vt 0.943137 0.003922
vt 0.919608 0.098039
vt 0.978431 0.003922
vt 0.978431 0.098039
vt 0.998039 0.003922
vt 0.962745 0.043137
vt 0.439216 0.721569
vt 0.419608 0.658824
vt 0.419608 0.729412
vt 0.462745 0.807843
vt 0.450980 0.745098
vt 0.407843 0.831373
vt 0.419608 0.764706
vt 0.423529 0.764706
vt 0.403922 0.780392
vt 0.856863 0.066667
vt 0.470588 0.803922
vt 0.301961 0.337255
vt 0.192157 0.349020
vt 0.000000 0.105882
vt 0.003922 0.082353
vt 0.462745 0.807843
vt 0.470588 0.803922
vt 0.356863 0.545098
vt 0.329412 0.552941
vt 0.329412 0.552941
vt 0.439216 0.545098
vt 0.407843 0.552941
vt 0.388235 0.552941
vt 0.431373 0.509804
vt 0.396078 0.780392
vt 0.380392 0.800000
vt 0.388235 0.800000
vt 0.141176 0.807843
vt 0.372549 0.513725
vt 0.427451 0.807843
vt 0.396078 0.686275
vt 0.427451 0.807843
vt 0.727451 0.282353
vt 0.731373 0.345098
vt 0.711765 0.301961
vt 0.570588 0.298039
vt 0.582353 0.407843
vt 0.523529 0.301961
vt 0.778431 0.235294
vt 0.719608 0.301961
vt 0.672549 0.298039
vt 0.621569 0.235294
vt 0.778431 0.282353
vt 0.825490 0.282353
vt 0.645098 0.345098
vt 0.727451 0.219608
vt 0.774510 0.219608
vt 0.770588 0.219608
vt 0.719608 0.364706
vt 0.750980 0.407843
vt 0.731373 0.407843
vt 0.688235 0.407843
vt 0.684314 0.349020
vt 0.707843 0.364706
vt 0.845098 0.301961
vt 0.821569 0.345098
vt 0.825490 0.407843
vt 0.837255 0.364706
vt 0.801961 0.407843
vt 0.778431 0.345098
vt 0.645098 0.407843
vt 0.900000 0.392157
vt 0.896078 0.286275
vt 0.994118 0.396078
vt 0.676471 0.407843
vt 0.668627 0.345098
vt 0.903922 0.270588
vt 0.903922 0.243137
vt 0.986275 0.278431
vt 0.868627 0.290196
vt 0.860784 0.400000
vt 0.892157 0.286275
vt 0.856863 0.294118
vt 0.872549 0.396078
vt 0.550980 0.407843
vt 0.535294 0.364706
vt 0.994118 0.286275
vt 0.707843 0.219608
vt 0.719608 0.219608
vt 0.892157 0.396078
vt 0.990196 0.243137
vt 0.896078 0.392157
vt 0.903922 0.282353
vt 0.990196 0.270588
vt 0.903922 0.243137
vt 0.990196 0.243137
vt 0.794118 0.219608
vt 0.703922 0.219608
vt 0.911765 1.000000
vt 0.911765 0.976471
vt 0.939216 1.000000
vt 0.884314 1.000000
vt 0.586275 0.164706
vt 0.547059 0.152941
vt 0.582353 0.039216
vt 0.547059 0.047059
vt 0.911765 1.000000
vt 0.786275 0.956863
vt 0.794118 0.807843
vt 0.809804 0.937255
vt 0.590196 0.039216
vt 0.598039 0.003922
vt 0.625490 0.047059
vt 0.625490 0.003922
vt 0.625490 0.188235
vt 0.660784 0.039216
vt 0.672549 0.180392
vt 0.535294 0.219608
vt 0.578431 0.207843
vt 0.625490 0.223529
vt 0.594118 0.207843
vt 0.500000 0.160784
vt 0.798039 1.000000
vt 0.511765 0.219608
vt 0.574510 0.003922
vt 0.547059 0.003922
vt 0.649020 0.003922
vt 0.511765 0.039216
vt 0.523529 0.003922
vt 0.950980 0.968627
vt 0.954902 0.996078
vt 0.939216 0.976471
vt 0.966667 0.980392
vt 0.958824 0.980392
vt 0.660784 0.219608
vt 0.766667 0.196078
vt 0.805882 0.223529
vt 0.805882 0.192157
vt 0.805882 0.192157
vt 0.462745 0.109804
vt 0.439216 0.113725
vt 0.466667 0.070588
vt 0.258824 0.105882
vt 0.258824 0.047059
vt 0.294118 0.105882
vt 0.723529 0.184314
vt 0.723529 0.015686
vt 0.758824 0.188235
vt 0.758824 0.019608
vt 0.223529 0.105882
vt 0.494118 0.113725
vt 0.462745 0.219608
vt 0.498039 0.223529
vt 0.837255 0.196078
vt 0.219608 0.243137
vt 0.262745 0.243137
vt 0.805882 0.019608
vt 0.841176 0.019608
vt 0.688235 0.184314
vt 0.688235 0.015686
vt 0.762745 0.019608
vt 0.435294 0.223529
vt 0.301961 0.243137
vt 0.750980 0.003922
vt 0.723529 0.003922
vt 0.805882 0.003922
vt 0.778431 0.007843
vt 0.825490 0.007843
vt 0.700000 0.003922
vt 0.447059 0.000000
vt 0.443137 0.094118
vt 0.498039 0.000000
vt 0.301961 0.000000
vt 0.301961 0.000000
vt 0.447059 0.000000
vt 0.498039 0.000000
vt 0.482353 0.090196
vt 0.305882 0.023529
vt 0.360784 0.043137
vt 0.305882 0.027451
vt 0.219608 0.003922
vt 0.301961 0.003922
vt 0.227451 0.082353
vt 0.290196 0.082353
vt 0.227451 0.180392
vt 0.227451 0.078431
vt 0.258824 0.137255
vt 0.443137 0.094118
vt 0.360784 0.047059
vt 0.290196 0.180392
vt 0.286275 0.078431
vt 0.911765 1.000000
vt 0.939216 1.000000
vt 0.911765 0.976471
vt 0.884314 1.000000
vt 0.586275 0.164706
vt 0.582353 0.039216
vt 0.547059 0.152941
vt 0.547059 0.047059
vt 0.911765 1.000000
vt 0.786275 0.956863
vt 0.809804 0.937255
vt 0.794118 0.807843
vt 0.590196 0.039216
vt 0.625490 0.047059
vt 0.598039 0.003922
vt 0.625490 0.003922
vt 0.625490 0.188235
vt 0.660784 0.039216
vt 0.672549 0.180392
vt 0.535294 0.219608
vt 0.578431 0.207843
vt 0.625490 0.223529
vt 0.594118 0.207843
vt 0.500000 0.160784
vt 0.798039 1.000000
vt 0.511765 0.219608
vt 0.574510 0.003922
vt 0.547059 0.003922
vt 0.649020 0.003922
vt 0.511765 0.039216
vt 0.523529 0.003922
vt 0.950980 0.968627
vt 0.939216 0.976471
vt 0.954902 0.996078
vt 0.966667 0.980392
vt 0.958824 0.980392
vt 0.660784 0.219608
vt 0.766667 0.196078
vt 0.805882 0.192157
vt 0.805882 0.223529
vt 0.805882 0.192157
vt 0.462745 0.113725
vt 0.458824 0.074510
vt 0.486275 0.117647
vt 0.258824 0.117647
vt 0.227451 0.121569
vt 0.262745 0.066667
vt 0.723529 0.184314
vt 0.758824 0.188235
vt 0.723529 0.015686
vt 0.758824 0.019608
vt 0.294118 0.121569
vt 0.462745 0.219608
vt 0.431373 0.117647
vt 0.431373 0.223529
vt 0.837255 0.196078
vt 0.298039 0.243137
vt 0.258824 0.243137
vt 0.805882 0.019608
vt 0.841176 0.019608
vt 0.688235 0.184314
vt 0.688235 0.015686
vt 0.762745 0.019608
vt 0.490196 0.223529
vt 0.223529 0.243137
vt 0.750980 0.003922
vt 0.723529 0.003922
vt 0.805882 0.003922
vt 0.778431 0.007843
vt 0.825490 0.007843
vt 0.700000 0.003922
vt 0.447059 0.000000
vt 0.498039 0.000000
vt 0.443137 0.094118
vt 0.301961 0.000000
vt 0.447059 0.000000
vt 0.301961 0.000000
vt 0.498039 0.000000
vt 0.482353 0.090196
vt 0.305882 0.023529
vt 0.360784 0.043137
vt 0.305882 0.027451
vt 0.219608 0.003922
vt 0.227451 0.082353
vt 0.301961 0.003922
vt 0.290196 0.082353
vt 0.227451 0.180392
vt 0.258824 0.137255
vt 0.227451 0.078431
vt 0.443137 0.094118
vt 0.360784 0.047059
vt 0.290196 0.180392
vt 0.286275 0.078431
vt 0.203922 0.360784
vt 0.137255 0.403922
vt 0.180392 0.423529
vt 0.121569 0.117647
vt 0.133333 0.290196
vt 0.066667 0.121569
vt 0.141176 0.121569
vt 0.196078 0.290196
vt 0.137255 0.121569
vt 0.160784 0.098039
vt 0.192157 0.121569
vt 0.196078 0.290196
vt 0.133333 0.403922
vt 0.200000 0.403922
vt 0.129412 0.403922
vt 0.188235 0.121569
vt 0.145098 0.121569
vt 0.133333 0.360784
vt 0.090196 0.423529
vt 0.058824 0.364706
vt 0.192157 0.117647
vt 0.094118 0.098039
vt 0.168627 0.098039
vt 0.203922 0.364706
vt 0.168627 0.423529
vt 0.066667 0.290196
vt 0.164706 0.019608
vt 0.184314 0.015686
vt 0.176471 0.000000
vt 0.188235 0.019608
vt 0.164706 0.019608
vt 0.098039 0.200000
vt 0.109804 0.149020
vt 0.070588 0.200000
vt 0.152941 0.149020
vt 0.105882 0.149020
vt 0.137255 0.200000
vt 0.062745 0.152941
vt 0.109804 0.149020
vt 0.074510 0.200000
vt 0.113725 0.200000
vt 0.105882 0.152941
vt 0.137255 0.200000
vt 0.098039 0.007843
vt 0.058824 0.152941
vt 0.070588 0.007843
vt 0.141176 0.007843
vt 0.113725 0.007843
vt 0.070588 0.007843
vt 0.094118 0.007843
vt 0.113725 0.007843
vt 0.152941 0.152941
vt 0.141176 0.007843
vt 0.113725 0.200000
vt 0.098039 0.200000
vt 0.427451 0.321569
vt 0.415686 0.321569
vt 0.427451 0.317647
vt 0.415686 0.317647
vt 0.482353 0.266667
vt 0.486275 0.305882
vt 0.443137 0.266667
vt 0.439216 0.305882
vt 0.482353 0.274510
vt 0.486275 0.317647
vt 0.443137 0.274510
vt 0.415686 0.376471
vt 0.439216 0.384314
vt 0.443137 0.462745
vt 0.447059 0.466667
vt 0.439216 0.380392
vt 0.431373 0.376471
vt 0.439216 0.317647
vt 0.427451 0.364706
vt 0.427451 0.364706
vt 0.415686 0.368627
vt 0.415686 0.364706
vt 0.415686 0.376471
vt 0.431373 0.376471
vt 0.478431 0.462745
vt 0.478431 0.466667
vt 0.490196 0.356863
vt 0.203922 0.360784
vt 0.180392 0.423529
vt 0.137255 0.403922
vt 0.121569 0.117647
vt 0.066667 0.121569
vt 0.133333 0.290196
vt 0.141176 0.121569
vt 0.196078 0.290196
vt 0.137255 0.121569
vt 0.192157 0.121569
vt 0.160784 0.098039
vt 0.133333 0.403922
vt 0.196078 0.290196
vt 0.200000 0.403922
vt 0.188235 0.121569
vt 0.129412 0.403922
vt 0.145098 0.121569
vt 0.133333 0.360784
vt 0.058824 0.364706
vt 0.090196 0.423529
vt 0.192157 0.117647
vt 0.094118 0.098039
vt 0.168627 0.098039
vt 0.203922 0.364706
vt 0.168627 0.423529
vt 0.180392 0.290196
vt 0.176471 0.360784
vt 0.152941 0.290196
vt 0.141176 0.360784
vt 0.066667 0.290196
vt 0.164706 0.019608
vt 0.176471 0.000000
vt 0.184314 0.015686
vt 0.188235 0.019608
vt 0.164706 0.019608
vt 0.098039 0.200000
vt 0.070588 0.200000
vt 0.109804 0.149020
vt 0.152941 0.149020
vt 0.137255 0.200000
vt 0.105882 0.149020
vt 0.062745 0.152941
vt 0.074510 0.200000
vt 0.109804 0.149020
vt 0.113725 0.200000
vt 0.137255 0.200000
vt 0.105882 0.152941
vt 0.058824 0.152941
vt 0.098039 0.007843
vt 0.070588 0.007843
vt 0.141176 0.007843
vt 0.113725 0.007843
vt 0.070588 0.007843
vt 0.094118 0.007843
vt 0.152941 0.152941
vt 0.113725 0.007843
vt 0.141176 0.007843
vt 0.113725 0.200000
vt 0.098039 0.200000
vt 0.427451 0.321569
vt 0.427451 0.317647
vt 0.415686 0.321569
vt 0.415686 0.317647
vt 0.482353 0.266667
vt 0.443137 0.266667
vt 0.486275 0.305882
vt 0.439216 0.305882
vt 0.482353 0.274510
vt 0.486275 0.317647
vt 0.443137 0.274510
vt 0.415686 0.376471
vt 0.443137 0.462745
vt 0.439216 0.384314
vt 0.447059 0.466667
vt 0.439216 0.380392
vt 0.431373 0.376471
vt 0.439216 0.317647
vt 0.427451 0.364706
vt 0.427451 0.364706
vt 0.415686 0.368627
vt 0.415686 0.364706
vt 0.415686 0.376471
vt 0.431373 0.376471
vt 0.478431 0.462745
vt 0.478431 0.466667
vt 0.470588 0.419608
vt 0.443137 0.415686
vt 0.482353 0.427451
vt 0.466667 0.411765
vt 0.490196 0.356863
vt 0.082353 0.439216
vt 0.094118 0.521569
vt 0.082353 0.439216
vt 0.094118 0.521569
vt 0.101961 0.439216
vt 0.101961 0.439216
vt 0.113725 0.521569
vt 0.113725 0.521569
vt 0.090196 0.517647
vt 0.109804 0.517647
vt 0.090196 0.537255
vt 0.109804 0.537255
# num_vertices: 717


g Object_jill

usemtl jill

f 1/1 2/2 3/3
f 4/4 5/5 6/6
f 7/7 8/8 9/9
f 10/10 11/11 12/12
f 8/8 7/7 13/13
f 14/14 15/15 16/16
f 16/16 15/15 17/17
f 14/14 16/16 18/18
f 16/16 6/6 18/18
f 19/19 20/20 6/6
f 20/20 18/18 6/6
f 21/21 22/22 23/23
f 24/24 25/25 23/23
f 18/18 26/26 14/14
f 14/14 27/27 15/15
f 28/28 13/13 29/29
f 30/30 31/31 32/32
f 33/33 34/34 35/35
f 36/36 37/37 12/12
f 38/38 10/10 12/12
f 39/39 12/12 11/11
f 39/39 36/36 12/12
f 38/38 12/12 37/37
f 40/40 41/41 42/42
f 41/41 43/43 42/42
f 44/44 45/45 46/46
f 45/45 47/47 35/35
f 46/46 45/45 35/35
f 16/16 17/17 48/48
f 49/49 46/46 50/50
f 18/18 51/51 26/26
f 52/52 53/53 54/54
f 1/1 3/3 55/55
f 31/31 30/30 41/41
f 50/50 56/56 49/49
f 57/57 58/58 59/59
f 50/50 46/46 60/60
f 8/8 13/13 28/28
f 61/61 3/3 62/62
f 63/63 64/64 65/65
f 66/66 63/63 67/67
f 65/65 68/68 69/69
f 30/30 70/70 41/41
f 71/71 7/7 9/9
f 29/29 72/72 73/73
f 6/6 16/16 4/4
f 71/71 67/67 7/7
f 74/74 75/75 24/24
f 20/20 51/51 18/18
f 21/21 23/23 25/25
f 2/2 76/76 3/3
f 61/61 55/55 3/3
f 77/77 53/53 78/78
f 65/65 13/13 63/63
f 24/24 23/23 67/67
f 79/79 53/53 80/80
f 77/77 80/80 53/53
f 79/79 54/54 53/53
f 81/81 82/82 83/83
f 13/13 65/65 69/69
f 84/84 43/43 85/85
f 71/71 24/24 67/67
f 66/66 67/67 23/23
f 44/44 46/46 49/49
f 59/59 86/86 57/57
f 87/87 88/88 89/89
f 90/90 91/91 92/92
f 59/59 58/58 93/93
f 84/84 94/94 43/43
f 41/41 70/70 43/43
f 85/85 43/43 70/70
f 46/46 35/35 60/60
f 34/34 60/60 35/35
f 69/69 95/95 13/13
f 29/29 13/13 72/72
f 95/95 72/72 13/13
f 95/95 96/96 72/72
f 73/73 72/72 96/96
f 33/33 35/35 47/47
f 42/42 43/43 94/94
f 52/52 78/78 53/53
f 76/76 62/62 3/3
f 78/78 52/52 97/97
f 61/61 62/62 98/98
f 99/99 73/73 100/100
f 41/41 40/40 31/31
f 96/96 100/100 73/73
f 92/92 87/87 89/89
f 93/93 86/86 59/59
f 66/66 64/64 63/63
f 28/28 101/101 8/8
f 101/101 9/9 8/8
f 68/68 65/65 64/64
f 102/102 89/89 88/88
f 103/103 57/57 86/86
f 13/13 7/7 67/67
f 13/13 67/67 63/63
f 87/87 91/91 88/88
f 104/104 105/105 106/106
f 105/105 107/107 106/106
f 108/108 4/4 16/16
f 109/109 14/14 26/26
f 110/110 83/83 82/82
f 87/87 92/92 91/91
f 111/111 93/93 58/58
f 19/19 6/6 5/5
f 112/112 23/23 22/22
f 25/25 24/24 75/75
f 113/113 114/114 115/115
f 116/116 117/117 118/118
f 119/119 120/120 121/121
f 122/122 123/123 124/124
f 125/125 126/126 127/127
f 126/126 128/128 127/127
f 129/129 130/130 131/131
f 132/132 133/133 134/134
f 135/135 136/136 137/137
f 134/134 138/138 132/132
f 139/139 140/140 141/141
f 142/142 143/143 144/144
f 145/145 146/146 147/147
f 148/148 149/149 150/150
f 151/151 142/142 152/152
f 152/152 153/153 154/154
f 155/155 156/156 157/157
f 158/158 159/159 118/118
f 160/160 161/161 162/162
f 115/115 163/163 164/164
f 118/118 117/117 165/165
f 148/148 166/166 167/167
f 168/168 169/169 170/170
f 169/169 124/124 170/170
f 171/171 172/172 173/173
f 166/166 174/174 173/173
f 149/149 148/148 167/167
f 175/175 176/176 149/149
f 177/177 178/178 170/170
f 178/178 168/168 170/170
f 179/179 177/177 123/123
f 180/180 128/128 181/181
f 182/182 127/127 120/120
f 127/127 180/180 120/120
f 153/153 152/152 142/142
f 152/152 183/183 184/184
f 185/185 186/186 187/187
f 188/188 189/189 190/190
f 191/191 192/192 193/193
f 170/170 123/123 177/177
f 170/170 124/124 123/123
f 194/194 195/195 196/196
f 194/194 197/197 198/198
f 172/172 156/156 166/166
f 119/119 121/121 171/171
f 199/199 171/171 200/200
f 199/199 119/119 171/171
f 175/175 156/156 176/176
f 176/176 156/156 155/155
f 140/140 201/201 202/202
f 186/186 185/185 203/203
f 204/204 205/205 206/206
f 207/207 208/208 209/209
f 152/152 210/210 151/151
f 204/204 206/206 211/211
f 212/212 213/213 214/214
f 121/121 120/120 214/214
f 176/176 155/155 181/181
f 210/210 152/152 184/184
f 215/215 216/216 217/217
f 152/152 154/154 183/183
f 218/218 184/184 183/183
f 219/219 184/184 218/218
f 181/181 213/213 180/180
f 220/220 181/181 221/221
f 222/222 223/223 224/224
f 119/119 225/225 120/120
f 181/181 220/220 176/176
f 226/226 227/227 228/228
f 212/212 180/180 213/213
f 125/125 127/127 182/182
f 191/191 229/229 192/192
f 230/230 231/231 232/232
f 116/116 118/118 159/159
f 233/233 192/192 229/229
f 127/127 128/128 180/180
f 167/167 175/175 149/149
f 220/220 149/149 176/176
f 119/119 199/199 190/190
f 199/199 200/200 190/190
f 225/225 119/119 190/190
f 189/189 188/188 174/174
f 193/193 192/192 234/234
f 190/190 200/200 188/188
f 235/235 236/236 237/237
f 238/238 132/132 138/138
f 239/239 240/240 241/241
f 135/135 237/237 136/136
f 242/242 135/135 137/137
f 243/243 145/145 147/147
f 231/231 230/230 244/244
f 245/245 246/246 247/247
f 248/248 247/247 246/246
f 249/249 210/210 219/219
f 250/250 251/251 252/252
f 252/252 185/185 187/187
f 253/253 254/254 255/255
f 187/187 250/250 252/252
f 256/256 217/217 257/257
f 254/254 258/258 255/255
f 211/211 206/206 259/259
f 151/151 210/210 143/143
f 210/210 249/249 143/143
f 151/151 143/143 142/142
f 184/184 219/219 210/210
f 260/260 261/261 262/262
f 263/263 264/264 265/265
f 240/240 266/266 241/241
f 260/260 262/262 267/267
f 262/262 268/268 267/267
f 253/253 255/255 269/269
f 140/140 202/202 141/141
f 142/142 144/144 153/153
f 270/270 263/263 146/146
f 263/263 265/265 146/146
f 228/228 271/271 272/272
f 273/273 274/274 164/164
f 237/237 275/275 136/136
f 275/275 276/276 136/136
f 271/271 228/228 227/227
f 122/122 277/277 123/123
f 117/117 278/278 165/165
f 193/193 234/234 279/279
f 179/179 123/123 280/280
f 223/223 222/222 281/281
f 222/222 282/282 281/281
f 277/277 280/280 123/123
f 283/283 224/224 223/223
f 175/175 167/167 156/156
f 131/131 281/281 129/129
f 284/284 266/266 285/285
f 268/268 286/286 267/267
f 126/126 221/221 128/128
f 115/115 164/164 274/274
f 113/113 162/162 161/161
f 225/225 182/182 120/120
f 282/282 129/129 281/281
f 172/172 171/171 287/287
f 287/287 157/157 172/172
f 221/221 181/181 128/128
f 257/257 217/217 216/216
f 194/194 198/198 195/195
f 166/166 148/148 174/174
f 224/224 283/283 288/288
f 113/113 161/161 114/114
f 180/180 212/212 120/120
f 163/163 115/115 114/114
f 212/212 214/214 120/120
f 155/155 214/214 181/181
f 156/156 167/167 166/166
f 200/200 171/171 173/173
f 200/200 173/173 188/188
f 150/150 174/174 148/148
f 173/173 174/174 188/188
f 166/166 173/173 172/172
f 121/121 287/287 171/171
f 172/172 157/157 156/156
f 181/181 214/214 213/213
f 265/265 147/147 146/146
f 241/241 266/266 284/284
f 235/235 276/276 236/236
f 235/235 289/289 276/276
f 290/290 270/270 291/291
f 263/263 270/270 264/264
f 275/275 237/237 236/236
f 290/290 265/265 264/264
f 275/275 236/236 276/276
f 290/290 264/264 270/270
f 292/292 293/293 294/294
f 295/295 296/296 297/297
f 294/294 298/298 292/292
f 299/299 300/300 301/301
f 295/295 297/297 301/301
f 301/301 300/300 295/295
f 302/302 298/298 303/303
f 295/295 300/300 304/304
f 305/305 306/306 307/307
f 294/294 293/293 308/308
f 309/309 310/310 293/293
f 311/311 312/312 313/313
f 303/303 314/314 315/315
f 316/316 315/315 317/317
f 315/315 318/318 319/319
f 309/309 293/293 319/319
f 318/318 315/315 316/316
f 292/292 302/302 293/293
f 302/302 319/319 293/293
f 303/303 315/315 302/302
f 309/309 319/319 318/318
f 302/302 292/292 298/298
f 314/314 303/303 298/298
f 319/319 302/302 315/315
f 320/320 296/296 304/304
f 321/321 322/322 323/323
f 296/296 295/295 304/304
f 324/324 312/312 311/311
f 300/300 299/299 325/325
f 326/326 327/327 328/328
f 329/329 330/330 331/331
f 332/332 322/322 333/333
f 334/334 335/335 296/296
f 336/336 323/323 322/322
f 305/305 337/337 338/338
f 339/339 331/331 330/330
f 325/325 304/304 300/300
f 312/312 325/325 299/299
f 340/340 328/328 327/327
f 341/341 333/333 322/322
f 342/342 343/343 344/344
f 343/343 345/345 344/344
f 346/346 307/307 306/306
f 306/306 305/305 338/338
f 347/347 338/338 337/337
f 299/299 313/313 312/312
f 310/310 308/308 293/293
f 314/314 317/317 315/315
f 297/297 296/296 335/335
f 348/348 349/349 350/350
f 348/348 351/351 349/349
f 352/352 353/353 354/354
f 353/353 355/355 354/354
f 356/356 350/350 349/349
f 356/356 349/349 351/351
f 357/357 358/358 359/359
f 360/360 361/361 362/362
f 361/361 363/363 362/362
f 352/352 360/360 364/364
f 360/360 362/362 364/364
f 365/365 366/366 362/362
f 362/362 366/366 364/364
f 367/367 353/353 368/368
f 364/364 366/366 369/369
f 352/352 364/364 370/370
f 364/364 369/369 370/370
f 353/353 367/367 371/371
f 357/357 359/359 372/372
f 371/371 367/367 373/373
f 374/374 354/354 375/375
f 354/354 355/355 375/375
f 362/362 363/363 365/365
f 363/363 376/376 365/365
f 377/377 378/378 355/355
f 378/378 375/375 355/355
f 355/355 353/353 377/377
f 353/353 371/371 377/377
f 379/379 380/380 381/381
f 379/379 382/382 380/380
f 383/383 381/381 380/380
f 383/383 380/380 382/382
f 384/384 369/369 366/366
f 352/352 368/368 353/353
f 385/385 386/386 387/387
f 385/385 388/388 386/386
f 389/389 390/390 391/391
f 392/392 393/393 394/394
f 395/395 396/396 397/397
f 396/396 398/398 397/397
f 399/399 393/393 392/392
f 389/389 400/400 401/401
f 400/400 402/402 401/401
f 403/403 387/387 386/386
f 399/399 392/392 404/404
f 392/392 405/405 404/404
f 403/403 386/386 388/388
f 388/388 406/406 403/403
f 406/406 407/407 403/403
f 400/400 389/389 391/391
f 408/408 409/409 395/395
f 409/409 396/396 395/395
f 385/385 410/410 388/388
f 410/410 406/406 388/388
f 390/390 389/389 411/411
f 389/389 401/401 411/411
f 392/392 394/394 405/405
f 394/394 412/412 405/405
f 398/398 396/396 413/413
f 396/396 414/414 413/413
f 406/406 410/410 415/415
f 410/410 416/416 415/415
f 407/407 406/406 417/417
f 406/406 415/415 417/417
f 396/396 409/409 414/414
f 409/409 418/418 414/414
f 419/419 420/420 421/421
f 422/422 423/423 424/424
f 423/423 419/419 424/424
f 419/419 421/421 424/424
f 421/421 425/425 424/424
f 421/421 426/426 425/425
f 427/427 424/424 428/428
f 422/422 427/427 423/423
f 427/427 429/429 423/423
f 430/430 431/431 432/432
f 431/431 433/433 432/432
f 434/434 435/435 436/436
f 422/422 424/424 427/427
f 428/428 424/424 437/437
f 424/424 425/425 437/437
f 423/423 429/429 419/419
f 438/438 419/419 429/429
f 438/438 420/420 419/419
f 436/436 439/439 434/434
f 437/437 426/426 420/420
f 435/435 440/440 436/436
f 439/439 436/436 440/440
f 426/426 437/437 425/425
f 426/426 421/421 420/420
f 441/441 442/442 443/443
f 441/441 443/443 444/444
f 445/445 446/446 447/447
f 447/447 446/446 448/448
f 449/449 443/443 442/442
f 449/449 444/444 443/443
f 450/450 451/451 452/452
f 453/453 454/454 455/455
f 455/455 454/454 456/456
f 445/445 457/457 453/453
f 453/453 457/457 454/454
f 458/458 454/454 459/459
f 454/454 457/457 459/459
f 460/460 461/461 447/447
f 457/457 462/462 459/459
f 445/445 463/463 457/457
f 457/457 463/463 462/462
f 447/447 464/464 460/460
f 450/450 465/465 451/451
f 464/464 466/466 460/460
f 467/467 468/468 446/446
f 446/446 468/468 448/448
f 454/454 458/458 456/456
f 456/456 458/458 469/469
f 470/470 448/448 471/471
f 471/471 448/448 468/468
f 448/448 470/470 447/447
f 447/447 470/470 464/464
f 472/472 473/473 474/474
f 472/472 474/474 475/475
f 476/476 474/474 473/473
f 476/476 475/475 474/474
f 477/477 459/459 462/462
f 445/445 447/447 461/461
f 478/478 479/479 480/480
f 478/478 480/480 481/481
f 482/482 483/483 484/484
f 485/485 486/486 487/487
f 488/488 489/489 490/490
f 490/490 489/489 491/491
f 492/492 485/485 487/487
f 482/482 493/493 494/494
f 494/494 493/493 495/495
f 496/496 480/480 479/479
f 492/492 497/497 485/485
f 485/485 497/497 498/498
f 496/496 481/481 480/480
f 481/481 496/496 499/499
f 499/499 496/496 500/500
f 494/494 483/483 482/482
f 501/501 488/488 502/502
f 502/502 488/488 490/490
f 478/478 481/481 503/503
f 503/503 481/481 499/499
f 484/484 504/504 482/482
f 482/482 504/504 493/493
f 485/485 498/498 486/486
f 486/486 498/498 505/505
f 491/491 506/506 490/490
f 490/490 506/506 507/507
f 499/499 508/508 503/503
f 503/503 508/508 509/509
f 500/500 510/510 499/499
f 499/499 510/510 508/508
f 490/490 507/507 502/502
f 502/502 507/507 511/511
f 512/512 513/513 514/514
f 515/515 516/516 517/517
f 517/517 516/516 512/512
f 512/512 516/516 513/513
f 513/513 516/516 518/518
f 513/513 518/518 519/519
f 520/520 521/521 516/516
f 515/515 517/517 520/520
f 520/520 517/517 522/522
f 523/523 524/524 525/525
f 525/525 524/524 526/526
f 527/527 528/528 529/529
f 515/515 520/520 516/516
f 521/521 530/530 516/516
f 516/516 530/530 518/518
f 517/517 512/512 522/522
f 531/531 522/522 512/512
f 531/531 512/512 514/514
f 528/528 527/527 532/532
f 530/530 514/514 519/519
f 529/529 528/528 533/533
f 532/532 533/533 528/528
f 519/519 518/518 530/530
f 519/519 514/514 513/513
f 534/534 535/535 536/536
f 537/537 538/538 539/539
f 540/540 535/535 541/541
f 542/542 543/543 544/544
f 542/542 545/545 546/546
f 547/547 548/548 549/549
f 549/549 548/548 550/550
f 551/551 552/552 553/553
f 554/554 543/543 540/540
f 537/537 539/539 555/555
f 550/550 556/556 549/549
f 557/557 536/536 546/546
f 547/547 558/558 548/548
f 559/559 538/538 553/553
f 551/551 553/553 538/538
f 544/544 545/545 542/542
f 554/554 540/540 541/541
f 557/557 546/546 545/545
f 534/534 541/541 535/535
f 559/559 539/539 538/538
f 560/560 561/561 562/562
f 563/563 564/564 562/562
f 563/563 562/562 561/561
f 565/565 566/566 567/567
f 568/568 569/569 570/570
f 571/571 572/572 573/573
f 574/574 575/575 576/576
f 566/566 577/577 578/578
f 578/578 577/577 579/579
f 580/580 581/581 568/568
f 582/582 583/583 571/571
f 575/575 584/584 585/585
f 585/585 584/584 586/586
f 560/560 562/562 564/564
f 574/574 570/570 587/587
f 570/570 574/574 576/576
f 578/578 567/567 566/566
f 588/588 573/573 572/572
f 585/585 576/576 575/575
f 587/587 570/570 569/569
f 572/572 571/571 583/583
f 569/569 568/568 581/581
f 589/589 590/590 591/591
f 591/591 590/590 592/592
f 593/593 594/594 595/595
f 595/595 594/594 596/596
f 597/597 598/598 593/593
f 593/593 598/598 594/594
f 593/593 595/595 597/597
f 597/597 595/595 599/599
f 600/600 601/601 602/602
f 602/602 601/601 603/603
f 604/604 601/601 605/605
f 605/605 601/601 600/600
f 599/599 606/606 597/597
f 597/597 606/606 598/598
f 607/607 608/608 591/591
f 591/591 608/608 589/589
f 608/608 609/609 589/589
f 589/589 609/609 590/590
f 610/610 607/607 592/592
f 592/592 607/607 591/591
f 609/609 610/610 590/590
f 590/590 610/610 592/592
f 611/611 600/600 602/602
f 612/612 611/611 602/602
f 613/613 602/602 614/614
f 614/614 602/602 603/603
f 612/612 602/602 605/605
f 605/605 602/602 604/604
f 595/595 596/596 599/599
f 599/599 596/596 606/606
f 614/614 615/615 613/613
f 613/613 615/615 598/598
f 614/614 601/601 615/615
f 601/601 604/604 596/596
f 604/604 606/606 596/596
f 606/606 604/604 598/598
f 596/596 615/615 601/601
f 615/615 596/596 594/594
f 598/598 604/604 613/613
f 602/602 613/613 604/604
f 603/603 601/601 614/614
f 594/594 598/598 615/615
f 616/616 617/617 618/618
f 619/619 620/620 621/621
f 622/622 623/623 618/618
f 624/624 625/625 626/626
f 624/624 627/627 628/628
f 629/629 630/630 631/631
f 630/630 632/632 631/631
f 633/633 634/634 635/635
f 636/636 622/622 626/626
f 619/619 637/637 620/620
f 632/632 630/630 638/638
f 639/639 627/627 617/617
f 629/629 631/631 640/640
f 641/641 642/642 643/643
f 644/644 643/643 642/642
f 625/625 624/624 628/628
f 636/636 623/623 622/622
f 639/639 628/628 627/627
f 616/616 618/618 623/623
f 645/645 621/621 620/620
f 646/646 647/647 648/648
f 649/649 647/647 650/650
f 649/649 648/648 647/647
f 651/651 652/652 653/653
f 654/654 655/655 656/656
f 657/657 658/658 659/659
f 660/660 661/661 662/662
f 653/653 663/663 664/664
f 663/663 665/665 664/664
f 666/666 654/654 667/667
f 668/668 657/657 669/669
f 662/662 670/670 671/671
f 670/670 672/672 671/671
f 646/646 650/650 647/647
f 660/660 673/673 655/655
f 655/655 661/661 660/660
f 663/663 653/653 652/652
f 674/674 659/659 658/658
f 670/670 662/662 661/661
f 673/673 656/656 655/655
f 659/659 669/669 657/657
f 656/656 667/667 654/654
f 675/675 676/676 677/677
f 676/676 678/678 677/677
f 679/679 680/680 681/681
f 680/680 682/682 681/681
f 683/683 679/679 684/684
f 679/679 681/681 684/684
f 679/679 683/683 680/680
f 683/683 685/685 680/680
f 686/686 687/687 688/688
f 687/687 689/689 688/688
f 690/690 691/691 688/688
f 691/691 686/686 688/688
f 685/685 683/683 692/692
f 683/683 684/684 692/692
f 693/693 676/676 694/694
f 676/676 675/675 694/694
f 694/694 675/675 695/695
f 675/675 677/677 695/695
f 696/696 678/678 693/693
f 678/678 676/676 693/693
f 695/695 677/677 696/696
f 677/677 678/678 696/696
f 697/697 687/687 686/686
f 698/698 687/687 697/697
f 699/699 700/700 687/687
f 700/700 689/689 687/687
f 698/698 691/691 687/687
f 691/691 690/690 687/687
f 680/680 685/685 682/682
f 685/685 692/692 682/682
f 701/701 702/702 703/703
f 702/702 704/704 703/703
f 700/700 705/705 688/688
f 688/688 682/682 690/690
f 690/690 682/682 692/692
f 692/692 684/684 690/690
f 682/682 688/688 705/705
f 705/705 681/681 682/682
f 684/684 699/699 690/690
f 687/687 690/690 699/699
f 689/689 700/700 688/688
f 681/681 705/705 684/684
f 706/706 707/707 708/708
f 707/707 709/709 708/708
f 706/706 710/710 707/707
f 711/711 712/712 710/710
f 712/712 713/713 710/710
f 711/711 708/708 712/712
f 710/710 706/706 711/711
f 706/706 708/708 711/711
f 714/714 715/715 716/716
f 715/715 717/717 716/716
f 713/713 707/707 710/710
f 709/709 712/712 708/708
# num_faces: 685
